<svg width="65" height="20" viewBox="0 0 65 20" fill="none" xmlns="http://www.w3.org/2000/svg">
<path d="M31.2663 4.56567L32.5788 5.87817C32.6491 5.94849 32.6491 6.06567 32.5788 6.13599L32.2975 6.41724C32.2272 6.48755 32.11 6.48755 32.0397 6.41724L30.7272 5.10474L29.6725 6.15942L30.985 7.47192C31.0553 7.54224 31.0553 7.65942 30.985 7.72974L30.7272 8.01099C30.6569 8.0813 30.5163 8.0813 30.446 8.01099L29.1569 6.69849L28.5241 7.30786C28.1257 7.7063 27.9382 8.2688 27.985 8.8313L28.1491 10.3313L26.6022 11.8782C26.5319 11.9719 26.5319 12.0891 26.6022 12.1594L26.86 12.4172C26.9303 12.4875 27.0475 12.4875 27.1178 12.4172L28.6882 10.8704L30.1647 11.0344C30.7272 11.0813 31.2897 10.8938 31.7116 10.4954L35.9772 6.22974L32.7897 3.04224L31.2663 4.56567ZM38.485 2.38599L36.6335 0.534424C36.5632 0.464111 36.446 0.464111 36.3757 0.534424L36.0944 0.792236C36.0241 0.862549 36.0241 0.979736 36.0944 1.05005L36.7741 1.72974L35.696 2.78442L34.3835 1.44849L33.985 1.05005C33.9147 0.979736 33.7975 0.979736 33.7272 1.05005L32.9303 1.84692C32.86 1.91724 32.86 2.03442 32.9303 2.12817L33.3288 2.52661L36.4928 5.69067L36.8913 6.08911C36.9616 6.18286 37.1022 6.18286 37.1725 6.08911L37.9694 5.29224C38.0397 5.22192 38.0397 5.10474 37.9694 5.03442L36.235 3.32349L37.2897 2.24536L37.9694 2.92505C38.0397 2.99536 38.1569 2.99536 38.2272 2.92505L38.485 2.6438C38.5553 2.57349 38.5553 2.4563 38.485 2.38599ZM2.83952 17.6106L3.83073 13.9875H5.17057L3.49577 18.9641H2.18327L0.522137 13.9875H1.85173L2.83952 17.6106ZM7.40934 18.9641C7.36833 18.8889 7.33187 18.7784 7.29997 18.6326C7.08805 18.8992 6.79183 19.0325 6.4113 19.0325C6.06266 19.0325 5.76644 18.9277 5.52262 18.718C5.27881 18.5061 5.1569 18.2406 5.1569 17.9216C5.1569 17.5206 5.30501 17.2175 5.60124 17.0125C5.89746 16.8074 6.32813 16.7048 6.89323 16.7048H7.2487V16.51C7.2487 16.1705 7.10173 16.0007 6.80778 16.0007C6.53434 16.0007 6.39762 16.1352 6.39762 16.4041H5.24577C5.24577 16.0463 5.3973 15.7558 5.70036 15.5325C6.0057 15.3092 6.39421 15.1975 6.86589 15.1975C7.33757 15.1975 7.71012 15.3126 7.98356 15.5427C8.257 15.7729 8.39714 16.0885 8.40397 16.4895V18.1267C8.40853 18.4662 8.46094 18.726 8.5612 18.906V18.9641H7.40934ZM6.68815 18.2122C6.83171 18.2122 6.9502 18.1814 7.04362 18.1199C7.13932 18.0583 7.20768 17.9889 7.2487 17.9114V17.3201H6.91374C6.5127 17.3201 6.31218 17.5001 6.31218 17.8601C6.31218 17.9649 6.34749 18.0504 6.41813 18.1165C6.48877 18.1803 6.57878 18.2122 6.68815 18.2122ZM10.6086 18.1438C10.7703 18.1438 10.8957 18.1005 10.9845 18.0139C11.0734 17.925 11.1167 17.802 11.1144 17.6448H12.1945C12.1945 18.0504 12.0487 18.3831 11.757 18.6428C11.4676 18.9026 11.0939 19.0325 10.6359 19.0325C10.0981 19.0325 9.67432 18.8639 9.36442 18.5266C9.05453 18.1894 8.89958 17.7222 8.89958 17.1252V17.0774C8.89958 16.7037 8.96794 16.3744 9.10466 16.0896C9.24365 15.8025 9.44304 15.5826 9.7028 15.4299C9.96257 15.275 10.2702 15.1975 10.6257 15.1975C11.1064 15.1975 11.4881 15.3308 11.7707 15.5974C12.0532 15.864 12.1945 16.2252 12.1945 16.6809H11.1144C11.1144 16.4895 11.0677 16.3425 10.9743 16.24C10.8809 16.1375 10.7555 16.0862 10.5983 16.0862C10.2998 16.0862 10.1255 16.2764 10.0754 16.657C10.0594 16.7778 10.0514 16.9441 10.0514 17.156C10.0514 17.5274 10.0959 17.7849 10.1847 17.9285C10.2736 18.072 10.4149 18.1438 10.6086 18.1438ZM14.2453 18.1438C14.4071 18.1438 14.5324 18.1005 14.6213 18.0139C14.7101 17.925 14.7534 17.802 14.7511 17.6448H15.8312C15.8312 18.0504 15.6854 18.3831 15.3937 18.6428C15.1043 18.9026 14.7306 19.0325 14.2726 19.0325C13.7349 19.0325 13.311 18.8639 13.0011 18.5266C12.6912 18.1894 12.5363 17.7222 12.5363 17.1252V17.0774C12.5363 16.7037 12.6047 16.3744 12.7414 16.0896C12.8804 15.8025 13.0798 15.5826 13.3395 15.4299C13.5993 15.275 13.9069 15.1975 14.2624 15.1975C14.7432 15.1975 15.1248 15.3308 15.4074 15.5974C15.6899 15.864 15.8312 16.2252 15.8312 16.6809H14.7511C14.7511 16.4895 14.7044 16.3425 14.611 16.24C14.5176 16.1375 14.3923 16.0862 14.235 16.0862C13.9365 16.0862 13.7622 16.2764 13.7121 16.657C13.6961 16.7778 13.6882 16.9441 13.6882 17.156C13.6882 17.5274 13.7326 17.7849 13.8215 17.9285C13.9103 18.072 14.0516 18.1438 14.2453 18.1438ZM17.5334 18.9641H16.3781V15.2659H17.5334V18.9641ZM16.3097 14.3123C16.3097 14.1482 16.369 14.0138 16.4875 13.9089C16.606 13.8041 16.7598 13.7517 16.9489 13.7517C17.138 13.7517 17.2918 13.8041 17.4103 13.9089C17.5288 14.0138 17.5881 14.1482 17.5881 14.3123C17.5881 14.4763 17.5288 14.6108 17.4103 14.7156C17.2918 14.8204 17.138 14.8728 16.9489 14.8728C16.7598 14.8728 16.606 14.8204 16.4875 14.7156C16.369 14.6108 16.3097 14.4763 16.3097 14.3123ZM19.3039 15.2659L19.3415 15.7C19.5967 15.365 19.9487 15.1975 20.3976 15.1975C20.7827 15.1975 21.0698 15.3126 21.259 15.5427C21.4504 15.7729 21.5495 16.1192 21.5563 16.5818V18.9641H20.401V16.6296C20.401 16.4428 20.3634 16.3061 20.2882 16.2195C20.2131 16.1306 20.0763 16.0862 19.8781 16.0862C19.6525 16.0862 19.485 16.175 19.3757 16.3528V18.9641H18.2238V15.2659H19.3039ZM23.9865 19.0325C23.4191 19.0325 22.96 18.8639 22.6091 18.5266C22.2581 18.1871 22.0827 17.7462 22.0827 17.2039V17.1082C22.0827 16.7299 22.1522 16.3961 22.2912 16.1067C22.4325 15.8173 22.6375 15.594 22.9064 15.4368C23.1753 15.2773 23.4943 15.1975 23.8634 15.1975C24.383 15.1975 24.7931 15.3593 25.0939 15.6829C25.3947 16.0042 25.5451 16.453 25.5451 17.0295V17.4773H23.255C23.2961 17.6847 23.3861 17.8476 23.5251 17.9661C23.6641 18.0846 23.8441 18.1438 24.0651 18.1438C24.4297 18.1438 24.7145 18.0162 24.9196 17.761L25.446 18.3831C25.3024 18.5813 25.0985 18.7397 24.8341 18.8582C24.5721 18.9744 24.2896 19.0325 23.9865 19.0325ZM23.8566 16.0862C23.5194 16.0862 23.3188 16.3095 23.255 16.7561H24.4172V16.6672C24.4217 16.4827 24.375 16.3403 24.277 16.24C24.179 16.1375 24.0389 16.0862 23.8566 16.0862ZM29.0861 18.9641H27.8898V13.9875H29.0861V18.9641ZM30.925 15.2659L30.9626 15.7C31.2178 15.365 31.5698 15.1975 32.0187 15.1975C32.4038 15.1975 32.6909 15.3126 32.88 15.5427C33.0715 15.7729 33.1706 16.1192 33.1774 16.5818V18.9641H32.0221V16.6296C32.0221 16.4428 31.9845 16.3061 31.9093 16.2195C31.8341 16.1306 31.6974 16.0862 31.4992 16.0862C31.2736 16.0862 31.1061 16.175 30.9967 16.3528V18.9641H29.8449V15.2659H30.925ZM34.0729 18.9641V16.0657H33.5363V15.2659H34.0729V14.9719C34.0729 14.5504 34.1971 14.2234 34.4455 13.991C34.6938 13.7585 35.0425 13.6423 35.4914 13.6423C35.6554 13.6423 35.8355 13.6663 36.0314 13.7141L36.0348 14.5618C35.9642 14.5413 35.8696 14.531 35.7511 14.531C35.4025 14.531 35.2282 14.6814 35.2282 14.9822V15.2659H35.9494V16.0657H35.2282V18.9641H34.0729ZM36.2091 17.0808C36.2091 16.7117 36.2809 16.3835 36.4245 16.0964C36.568 15.807 36.7743 15.5849 37.0431 15.4299C37.312 15.275 37.6276 15.1975 37.9899 15.1975C38.5436 15.1975 38.98 15.3695 39.299 15.7136C39.618 16.0554 39.7775 16.5214 39.7775 17.1116V17.1526C39.7775 17.7291 39.6169 18.1871 39.2956 18.5266C38.9766 18.8639 38.5436 19.0325 37.9967 19.0325C37.4704 19.0325 37.0477 18.8752 36.7287 18.5608C36.4097 18.2441 36.2376 17.8157 36.2126 17.2756L36.2091 17.0808ZM37.361 17.1526C37.361 17.4944 37.4146 17.745 37.5216 17.9045C37.6287 18.064 37.7871 18.1438 37.9967 18.1438C38.4069 18.1438 38.6165 17.8282 38.6257 17.197V17.0808C38.6257 16.4177 38.4137 16.0862 37.9899 16.0862C37.6048 16.0862 37.3963 16.3722 37.3644 16.9441L37.361 17.1526ZM42.5221 16.3083L42.1427 16.281C41.7804 16.281 41.548 16.3949 41.4455 16.6228V18.9641H40.2936V15.2659H41.3737L41.4113 15.741C41.605 15.3787 41.875 15.1975 42.2214 15.1975C42.3444 15.1975 42.4515 15.2112 42.5426 15.2385L42.5221 16.3083ZM44.026 15.2659L44.0636 15.7C44.3257 15.365 44.6777 15.1975 45.1198 15.1975C45.5869 15.1975 45.9025 15.3832 46.0666 15.7546C46.3172 15.3832 46.6795 15.1975 47.1535 15.1975C47.9032 15.1975 48.2882 15.651 48.3088 16.5579V18.9641H47.1535V16.6296C47.1535 16.4405 47.1216 16.3027 47.0578 16.2161C46.994 16.1295 46.8778 16.0862 46.7091 16.0862C46.4813 16.0862 46.3115 16.1876 46.1999 16.3904L46.2033 16.4382V18.9641H45.048V16.6365C45.048 16.4428 45.0173 16.3027 44.9557 16.2161C44.8942 16.1295 44.7769 16.0862 44.6037 16.0862C44.3827 16.0862 44.214 16.1876 44.0978 16.3904V18.9641H42.946V15.2659H44.026ZM51.05 18.9641C51.009 18.8889 50.9725 18.7784 50.9406 18.6326C50.7287 18.8992 50.4325 19.0325 50.0519 19.0325C49.7033 19.0325 49.4071 18.9277 49.1632 18.718C48.9194 18.5061 48.7975 18.2406 48.7975 17.9216C48.7975 17.5206 48.9456 17.2175 49.2419 17.0125C49.5381 16.8074 49.9688 16.7048 50.5339 16.7048H50.8893V16.51C50.8893 16.1705 50.7424 16.0007 50.4484 16.0007C50.175 16.0007 50.0382 16.1352 50.0382 16.4041H48.8864C48.8864 16.0463 49.0379 15.7558 49.341 15.5325C49.6463 15.3092 50.0348 15.1975 50.5065 15.1975C50.9782 15.1975 51.3507 15.3126 51.6242 15.5427C51.8976 15.7729 52.0378 16.0885 52.0446 16.4895V18.1267C52.0492 18.4662 52.1016 18.726 52.2018 18.906V18.9641H51.05ZM50.3288 18.2122C50.4723 18.2122 50.5908 18.1814 50.6842 18.1199C50.7799 18.0583 50.8483 17.9889 50.8893 17.9114V17.3201H50.5544C50.1533 17.3201 49.9528 17.5001 49.9528 17.8601C49.9528 17.9649 49.9881 18.0504 50.0588 18.1165C50.1294 18.1803 50.2194 18.2122 50.3288 18.2122ZM54.027 14.3464V15.2659H54.6354V16.0657H54.027V17.7576C54.027 17.8966 54.0521 17.9934 54.1022 18.0481C54.1523 18.1028 54.2515 18.1301 54.3996 18.1301C54.5135 18.1301 54.6092 18.1233 54.6867 18.1096V18.9333C54.4793 18.9994 54.2629 19.0325 54.0373 19.0325C53.6408 19.0325 53.348 18.939 53.1589 18.7522C52.9697 18.5653 52.8752 18.2817 52.8752 17.9011V16.0657H52.4035V15.2659H52.8752V14.3464H54.027ZM56.3068 18.9641H55.1515V15.2659H56.3068V18.9641ZM55.0832 14.3123C55.0832 14.1482 55.1424 14.0138 55.2609 13.9089C55.3794 13.8041 55.5332 13.7517 55.7223 13.7517C55.9115 13.7517 56.0653 13.8041 56.1838 13.9089C56.3022 14.0138 56.3615 14.1482 56.3615 14.3123C56.3615 14.4763 56.3022 14.6108 56.1838 14.7156C56.0653 14.8204 55.9115 14.8728 55.7223 14.8728C55.5332 14.8728 55.3794 14.8204 55.2609 14.7156C55.1424 14.6108 55.0832 14.4763 55.0832 14.3123ZM56.8742 17.0808C56.8742 16.7117 56.946 16.3835 57.0895 16.0964C57.2331 15.807 57.4393 15.5849 57.7082 15.4299C57.9771 15.275 58.2926 15.1975 58.6549 15.1975C59.2087 15.1975 59.645 15.3695 59.964 15.7136C60.283 16.0554 60.4425 16.5214 60.4425 17.1116V17.1526C60.4425 17.7291 60.2819 18.1871 59.9606 18.5266C59.6416 18.8639 59.2087 19.0325 58.6618 19.0325C58.1354 19.0325 57.7127 18.8752 57.3937 18.5608C57.0747 18.2441 56.9027 17.8157 56.8776 17.2756L56.8742 17.0808ZM58.026 17.1526C58.026 17.4944 58.0796 17.745 58.1867 17.9045C58.2938 18.064 58.4521 18.1438 58.6618 18.1438C59.0719 18.1438 59.2816 17.8282 59.2907 17.197V17.0808C59.2907 16.4177 59.0788 16.0862 58.6549 16.0862C58.2699 16.0862 58.0614 16.3722 58.0295 16.9441L58.026 17.1526ZM62.008 15.2659L62.0456 15.7C62.3008 15.365 62.6528 15.1975 63.1017 15.1975C63.4868 15.1975 63.7739 15.3126 63.9631 15.5427C64.1545 15.7729 64.2536 16.1192 64.2604 16.5818V18.9641H63.1051V16.6296C63.1051 16.4428 63.0675 16.3061 62.9924 16.2195C62.9172 16.1306 62.7804 16.0862 62.5822 16.0862C62.3566 16.0862 62.1891 16.175 62.0798 16.3528V18.9641H60.9279V15.2659H62.008Z" fill="#8E8E8E"/>
</svg>
